<?xml version="1.0" encoding="UTF-8"?>
<svg id="Capa_1" data-name="Capa 1" xmlns="http://www.w3.org/2000/svg" viewBox="0 0 55.84 40">
  <defs>
    <style>
      .cls-1 {
        fill: #13263c;
      }

      .cls-1, .cls-2 {
        stroke-width: 0px;
      }

      .cls-2 {
        fill: #009ef7;
      }
    </style>
  </defs>
  <path class="cls-2" d="M26.26,35.28c.96.96,1.91,1.92,2.87,2.89,4.71-4.67,9.43-9.34,14.14-14.01,0-4.12,0-8.25,0-12.37-3.37-3.4-6.75-6.8-10.12-10.21-1.08,1.07-2.16,2.14-3.24,3.21,2.51,2.52,5.03,5.05,7.54,7.57.01,3.94.02,7.89.04,11.83-3.74,3.7-7.49,7.39-11.23,11.09Z"/>
  <path class="cls-1" d="M38.71,11.72L27.09,0l-12.46,12.35c-.33.32-.33.85,0,1.17s.85.33,1.17,0L27.08,2.35l9.93,10.02-5.39,5.35,5.69,5.74-14.12,14-9.2-9.28c-.32-.33-.85-.33-1.17,0s-.33.85,0,1.17l10.37,10.46,15.81-15.67-.27-12.4Z"/>
</svg>