<?xml version="1.0" encoding="UTF-8"?>
<svg id="Capa_1" data-name="Capa 1" xmlns="http://www.w3.org/2000/svg" viewBox="0 0 120 73.5">
  <defs>
    <style>
      .cls-1 {
        fill: #13263c;
      }

      .cls-1, .cls-2 {
        stroke-width: 0px;
      }

      .cls-2 {
        fill: #009ef7;
      }
    </style>
  </defs>
  <g>
    <path class="cls-1" d="M16.83,69.34l-4.15-9.2c-.04-.09-.11-.13-.2-.13h-3.09c-.11,0-.17.06-.17.17v9.07c0,.11-.04.21-.12.28-.08.08-.17.12-.28.12h-3.89c-.11,0-.2-.04-.28-.12s-.12-.17-.12-.28v-22.45c0-.11.04-.21.12-.28.08-.08.17-.12.28-.12h9.5c1.42,0,2.66.29,3.74.86,1.07.58,1.9,1.39,2.49,2.46.59,1.06.88,2.29.88,3.69,0,1.51-.38,2.79-1.13,3.87-.75,1.07-1.8,1.83-3.16,2.28-.11.04-.14.12-.1.23l4.52,9.4c.04.09.07.15.07.2,0,.18-.12.27-.36.27h-4.09c-.22,0-.38-.1-.46-.3ZM9.22,50.57v5.68c0,.11.06.17.17.17h4.35c.93,0,1.69-.28,2.27-.83.59-.55.88-1.27.88-2.16s-.29-1.61-.88-2.18c-.59-.57-1.34-.85-2.27-.85h-4.35c-.11,0-.17.06-.17.17Z"/>
    <path class="cls-1" d="M39.64,62.16c-.02.27-.17.4-.43.4h-10.26c-.13,0-.18.06-.13.17.07.44.19.89.37,1.33.58,1.24,1.75,1.86,3.52,1.86,1.42-.02,2.53-.6,3.35-1.73.09-.13.19-.2.3-.2.07,0,.14.04.23.13l2.39,2.36c.11.11.17.21.17.3,0,.04-.04.13-.13.27-.73.91-1.67,1.61-2.82,2.11s-2.41.75-3.79.75c-1.9,0-3.51-.43-4.83-1.3s-2.26-2.07-2.84-3.62c-.46-1.11-.7-2.56-.7-4.35,0-1.22.17-2.29.5-3.22.51-1.57,1.4-2.82,2.67-3.75,1.27-.93,2.78-1.39,4.53-1.39,2.21,0,3.99.64,5.33,1.93,1.34,1.28,2.15,3,2.44,5.15.13.84.18,1.78.13,2.82ZM29.02,58.28c-.09.29-.17.64-.23,1.06,0,.11.06.17.17.17h5.75c.13,0,.18-.06.13-.17-.11-.64-.17-.95-.17-.93-.2-.66-.55-1.18-1.05-1.54-.5-.37-1.11-.55-1.84-.55-1.4,0-2.31.65-2.76,1.96Z"/>
    <path class="cls-1" d="M53.24,46.51c.08-.08.17-.12.28-.12h3.89c.11,0,.2.04.28.12.08.08.12.17.12.28v22.45c0,.11-.04.21-.12.28-.08.08-.17.12-.28.12h-3.89c-.11,0-.2-.04-.28-.12s-.12-.17-.12-.28v-1.1c0-.07-.02-.1-.07-.12-.04-.01-.09,0-.13.05-.93,1.22-2.2,1.83-3.82,1.83s-2.88-.43-4-1.3-1.92-2.05-2.41-3.55c-.38-1.15-.56-2.49-.56-4.02s.2-2.94.6-4.12c.51-1.42,1.31-2.54,2.41-3.37s2.45-1.25,4.07-1.25,2.83.55,3.72,1.66c.04.07.09.09.13.07.04-.02.07-.07.07-.13v-7.11c0-.11.04-.21.12-.28ZM53.09,61.1c0-1.48-.24-2.64-.73-3.49-.51-.86-1.25-1.29-2.22-1.29-1.04,0-1.83.43-2.36,1.29-.55.86-.83,2.04-.83,3.52,0,1.33.23,2.44.7,3.32.55.95,1.37,1.43,2.46,1.43,1,0,1.77-.48,2.32-1.43.44-.82.66-1.94.66-3.35Z"/>
    <path class="cls-2" d="M61.74,69.52c-.08-.08-.12-.17-.12-.28v-22.45c0-.11.04-.21.12-.28s.17-.12.28-.12h8.3c1.66,0,3.12.29,4.37.88,1.25.59,2.22,1.41,2.91,2.47.69,1.06,1.03,2.29,1.03,3.69v9.16c0,1.4-.34,2.62-1.03,3.69-.69,1.06-1.66,1.89-2.91,2.47-1.25.59-2.71.88-4.37.88h-8.3c-.11,0-.21-.04-.28-.12ZM66.48,65.62h4.02c1.02,0,1.84-.34,2.47-1.03.63-.69.96-1.6.98-2.76v-7.64c0-1.15-.32-2.07-.95-2.76-.63-.69-1.48-1.03-2.54-1.03h-3.99c-.11,0-.17.06-.17.17v14.88c0,.11.06.17.17.17Z"/>
    <path class="cls-2" d="M84.61,68.44c-1.33-.97-2.24-2.3-2.72-3.98-.31-1.04-.47-2.17-.47-3.39,0-1.31.15-2.48.47-3.52.51-1.64,1.43-2.92,2.76-3.85,1.33-.93,2.92-1.39,4.78-1.39s3.36.46,4.65,1.38c1.28.92,2.19,2.2,2.72,3.84.35,1.11.53,2.27.53,3.49s-.15,2.31-.46,3.35c-.49,1.73-1.39,3.08-2.71,4.07s-2.91,1.48-4.76,1.48-3.45-.49-4.78-1.46ZM91.25,65.22c.51-.44.87-1.05,1.1-1.83.18-.71.27-1.48.27-2.33,0-.93-.09-1.72-.27-2.36-.24-.75-.62-1.34-1.13-1.76-.51-.42-1.13-.63-1.86-.63s-1.38.21-1.88.63c-.5.42-.86,1.01-1.08,1.76-.18.53-.27,1.32-.27,2.36s.08,1.77.23,2.33c.22.78.59,1.38,1.11,1.83.52.44,1.16.66,1.91.66s1.35-.22,1.86-.66Z"/>
    <path class="cls-2" d="M103.26,68.57c-1.3-.89-2.22-2.1-2.77-3.65-.38-1.11-.57-2.41-.57-3.92s.19-2.77.57-3.85c.53-1.51,1.45-2.69,2.76-3.55s2.85-1.29,4.62-1.29,3.33.44,4.67,1.33c1.34.89,2.23,2,2.67,3.35.18.53.27.93.27,1.2v.07c0,.2-.11.32-.33.36l-3.82.57h-.07c-.2,0-.33-.11-.4-.33l-.1-.53c-.15-.58-.5-1.05-1.03-1.43-.53-.38-1.16-.56-1.89-.56s-1.31.18-1.79.53c-.49.36-.83.84-1.03,1.46-.24.66-.36,1.57-.36,2.72s.11,2.06.33,2.72c.2.66.55,1.18,1.05,1.56.5.38,1.1.57,1.81.57s1.29-.18,1.81-.55c.52-.37.88-.87,1.08-1.51.02-.04.03-.11.03-.2.02-.02.03-.06.03-.1.02-.27.18-.38.47-.33l3.82.6c.22.04.33.17.33.37,0,.18-.07.51-.2,1-.47,1.48-1.37,2.65-2.71,3.49-1.34.84-2.88,1.26-4.63,1.26s-3.3-.44-4.6-1.33Z"/>
  </g>
  <g>
    <path class="cls-2" d="M58.56,36.02c.87.87,1.74,1.75,2.6,2.62,4.28-4.24,8.56-8.48,12.84-12.72,0-3.74,0-7.48,0-11.22l-9.18-9.26c-.98.97-1.96,1.94-2.94,2.91,2.28,2.29,4.56,4.58,6.85,6.87.01,3.58.02,7.16.03,10.73-3.4,3.35-6.8,6.71-10.19,10.06Z"/>
    <path class="cls-1" d="M69.86,14.64l-10.55-10.64-11.31,11.21c-.3.29-.3.77,0,1.06s.77.3,1.06,0l10.24-10.15,9.01,9.09-4.89,4.85,5.16,5.21-12.81,12.7-8.35-8.42c-.29-.3-.77-.3-1.06,0s-.3.77,0,1.06l9.41,9.49,14.34-14.22-.24-11.25Z"/>
  </g>
</svg>