<?xml version="1.0" encoding="UTF-8"?>
<svg id="Capa_1" data-name="Capa 1" xmlns="http://www.w3.org/2000/svg" viewBox="0 0 266.37 56.35">
  <defs>
    <style>
      .cls-1 {
        fill: #13263c;
      }

      .cls-1, .cls-2 {
        stroke-width: 0px;
      }

      .cls-2 {
        fill: #009ef7;
      }
    </style>
  </defs>
  <g>
    <path class="cls-1" d="M103.89,40.49l-5.21-11.55c-.06-.11-.14-.17-.25-.17h-3.88c-.14,0-.21.07-.21.21v11.38c0,.14-.05.26-.15.36-.1.1-.22.15-.35.15h-4.88c-.14,0-.26-.05-.35-.15s-.15-.22-.15-.36V12.19c0-.14.05-.26.15-.36.1-.1.21-.15.35-.15h11.92c1.78,0,3.34.36,4.69,1.08,1.35.72,2.39,1.75,3.13,3.08.74,1.33,1.1,2.88,1.1,4.63,0,1.89-.47,3.51-1.42,4.86-.95,1.35-2.27,2.3-3.96,2.86-.14.06-.18.15-.12.29l5.67,11.8c.06.11.08.19.08.25,0,.22-.15.33-.46.33h-5.13c-.28,0-.47-.13-.58-.38ZM94.34,16.94v7.13c0,.14.07.21.21.21h5.46c1.17,0,2.12-.35,2.85-1.04.74-.69,1.11-1.6,1.11-2.71s-.37-2.02-1.11-2.73c-.74-.71-1.69-1.06-2.85-1.06h-5.46c-.14,0-.21.07-.21.21Z"/>
    <path class="cls-1" d="M132.53,31.49c-.03.33-.21.5-.54.5h-12.88c-.17,0-.22.07-.17.21.08.56.24,1.11.46,1.67.72,1.56,2.2,2.33,4.42,2.33,1.78-.03,3.18-.75,4.21-2.17.11-.17.24-.25.37-.25.08,0,.18.06.29.17l3,2.96c.14.14.21.26.21.37,0,.06-.06.17-.17.33-.92,1.14-2.1,2.02-3.54,2.65s-3.03.94-4.75.94c-2.39,0-4.41-.54-6.07-1.63-1.65-1.08-2.84-2.6-3.56-4.54-.58-1.39-.88-3.21-.88-5.46,0-1.53.21-2.88.63-4.04.64-1.97,1.76-3.54,3.36-4.71,1.6-1.17,3.49-1.75,5.69-1.75,2.78,0,5.01.81,6.69,2.42,1.68,1.61,2.7,3.77,3.06,6.46.17,1.06.22,2.24.17,3.54ZM119.19,26.61c-.11.36-.21.81-.29,1.33,0,.14.07.21.21.21h7.21c.17,0,.22-.07.17-.21-.14-.81-.21-1.19-.21-1.17-.25-.83-.69-1.48-1.31-1.94-.62-.46-1.4-.69-2.31-.69-1.75,0-2.9.82-3.46,2.46Z"/>
    <path class="cls-1" d="M149.6,11.83c.1-.1.21-.15.35-.15h4.88c.14,0,.26.05.35.15.1.1.15.22.15.36v28.18c0,.14-.05.26-.15.36-.1.1-.22.15-.35.15h-4.88c-.14,0-.26-.05-.35-.15s-.15-.22-.15-.36v-1.37c0-.08-.03-.13-.08-.15-.06-.01-.11,0-.17.06-1.17,1.53-2.77,2.29-4.79,2.29s-3.62-.54-5.02-1.63-2.41-2.57-3.02-4.46c-.47-1.45-.71-3.13-.71-5.04s.25-3.7.75-5.17c.64-1.78,1.65-3.19,3.02-4.23s3.08-1.56,5.11-1.56,3.56.7,4.67,2.08c.06.08.11.11.17.08.05-.03.08-.08.08-.17v-8.92c0-.14.05-.26.15-.36ZM149.41,30.15c0-1.86-.31-3.32-.92-4.38-.64-1.08-1.57-1.63-2.79-1.63-1.31,0-2.29.54-2.96,1.63-.7,1.08-1.04,2.56-1.04,4.42,0,1.67.29,3.06.88,4.17.69,1.2,1.72,1.79,3.08,1.79,1.25,0,2.22-.6,2.92-1.79.56-1.03.83-2.43.83-4.21Z"/>
    <path class="cls-2" d="M160.27,40.72c-.1-.1-.15-.22-.15-.36V12.19c0-.14.05-.26.15-.36s.21-.15.35-.15h10.42c2.08,0,3.91.37,5.48,1.1,1.57.74,2.79,1.77,3.65,3.11.86,1.33,1.29,2.88,1.29,4.63v11.5c0,1.75-.43,3.29-1.29,4.63-.86,1.33-2.08,2.37-3.65,3.11-1.57.74-3.4,1.1-5.48,1.1h-10.42c-.14,0-.26-.05-.35-.15ZM166.21,35.82h5.04c1.28,0,2.31-.43,3.11-1.29.79-.86,1.2-2.01,1.23-3.46v-9.59c0-1.45-.4-2.6-1.19-3.46-.79-.86-1.86-1.29-3.19-1.29h-5c-.14,0-.21.07-.21.21v18.67c0,.14.07.21.21.21Z"/>
    <path class="cls-2" d="M188.97,39.36c-1.67-1.22-2.81-2.89-3.42-5-.39-1.31-.58-2.72-.58-4.25,0-1.64.19-3.11.58-4.42.64-2.06,1.79-3.67,3.46-4.84,1.67-1.17,3.67-1.75,6-1.75s4.22.58,5.84,1.73c1.61,1.15,2.75,2.76,3.42,4.81.44,1.39.67,2.85.67,4.38s-.19,2.9-.58,4.21c-.61,2.17-1.74,3.87-3.4,5.11-1.65,1.24-3.65,1.86-5.98,1.86s-4.34-.61-6-1.83ZM197.31,35.32c.64-.56,1.1-1.32,1.38-2.29.22-.89.33-1.86.33-2.92,0-1.17-.11-2.15-.33-2.96-.31-.94-.78-1.68-1.42-2.21-.64-.53-1.42-.79-2.33-.79s-1.73.26-2.36.79c-.62.53-1.08,1.27-1.35,2.21-.22.67-.33,1.65-.33,2.96s.1,2.22.29,2.92c.28.97.74,1.74,1.4,2.29.65.56,1.45.83,2.4.83s1.69-.28,2.33-.83Z"/>
    <path class="cls-2" d="M212.37,39.53c-1.63-1.11-2.79-2.64-3.48-4.58-.47-1.39-.71-3.03-.71-4.92s.24-3.47.71-4.84c.67-1.89,1.82-3.38,3.46-4.46s3.57-1.63,5.79-1.63,4.17.56,5.86,1.67c1.68,1.11,2.8,2.52,3.36,4.21.22.67.33,1.17.33,1.5v.08c0,.25-.14.4-.42.46l-4.79.71h-.08c-.25,0-.42-.14-.5-.42l-.13-.67c-.19-.72-.62-1.32-1.29-1.79-.67-.47-1.46-.71-2.38-.71s-1.64.22-2.25.67c-.61.45-1.04,1.06-1.29,1.83-.31.83-.46,1.97-.46,3.42s.14,2.58.42,3.42c.25.83.69,1.49,1.31,1.96.63.47,1.38.71,2.27.71s1.62-.23,2.27-.69c.65-.46,1.1-1.09,1.35-1.9.03-.05.04-.14.04-.25.03-.03.04-.07.04-.13.03-.33.22-.47.58-.42l4.79.75c.28.06.42.21.42.46,0,.22-.08.64-.25,1.25-.58,1.86-1.72,3.32-3.4,4.38-1.68,1.06-3.62,1.58-5.82,1.58s-4.15-.56-5.77-1.67Z"/>
  </g>
  <g>
    <path class="cls-2" d="M57.82,49.8c1.34,1.35,2.67,2.69,4.01,4.04,6.59-6.53,13.19-13.07,19.78-19.6,0-5.77,0-11.53,0-17.3-4.72-4.76-9.44-9.52-14.16-14.27-1.51,1.5-3.02,2.99-4.53,4.49,3.52,3.53,7.03,7.06,10.55,10.59.02,5.51.03,11.03.05,16.54-5.24,5.17-10.47,10.34-15.71,15.51Z"/>
    <path class="cls-1" d="M75.24,16.84L58.99.45l-17.43,17.28c-.46.45-.46,1.19,0,1.64s1.19.46,1.64,0l15.78-15.65,13.89,14.01-7.54,7.48,7.96,8.03-19.75,19.58-12.87-12.98c-.45-.46-1.19-.46-1.64,0s-.46,1.19,0,1.64l14.5,14.63,22.11-21.91-.38-17.35Z"/>
  </g>
</svg>