<?xml version="1.0" encoding="UTF-8"?>
<svg id="Capa_1" data-name="Capa 1" xmlns="http://www.w3.org/2000/svg" viewBox="0 0 173.18 35">
  <defs>
    <style>
      .cls-1 {
        fill: #fff;
      }

      .cls-1, .cls-2, .cls-3 {
        stroke-width: 0px;
      }

      .cls-2 {
        fill: #13263c;
      }

      .cls-3 {
        fill: #009ef7;
      }
    </style>
  </defs>
  <g>
    <path class="cls-1" d="M68.21,25.21l-3.27-7.24c-.04-.07-.09-.1-.16-.1h-2.43c-.09,0-.13.04-.13.13v7.14c0,.09-.03.16-.09.22-.06.06-.14.09-.22.09h-3.06c-.09,0-.16-.03-.22-.09s-.09-.14-.09-.22V7.46c0-.09.03-.16.09-.22.06-.06.13-.09.22-.09h7.48c1.12,0,2.1.23,2.94.68.85.45,1.5,1.1,1.96,1.93.46.84.69,1.8.69,2.9,0,1.19-.3,2.2-.89,3.05-.59.85-1.42,1.44-2.48,1.79-.09.04-.11.1-.08.18l3.56,7.4c.04.07.05.12.05.16,0,.14-.1.21-.29.21h-3.22c-.17,0-.3-.08-.37-.24ZM62.23,10.44v4.47c0,.09.04.13.13.13h3.43c.73,0,1.33-.22,1.79-.65.46-.44.69-1,.69-1.7s-.23-1.27-.69-1.71c-.46-.44-1.06-.67-1.79-.67h-3.43c-.09,0-.13.04-.13.13Z"/>
    <path class="cls-1" d="M86.18,19.56c-.02.21-.13.31-.34.31h-8.08c-.1,0-.14.04-.1.13.05.35.15.7.29,1.05.45.98,1.38,1.46,2.77,1.46,1.12-.02,2-.47,2.64-1.36.07-.1.15-.16.23-.16.05,0,.11.04.18.1l1.88,1.86c.09.09.13.17.13.23,0,.04-.04.1-.1.21-.58.71-1.32,1.27-2.22,1.66s-1.9.59-2.98.59c-1.5,0-2.77-.34-3.8-1.02s-1.78-1.63-2.24-2.85c-.37-.87-.55-2.01-.55-3.43,0-.96.13-1.8.39-2.54.4-1.24,1.1-2.22,2.1-2.95,1-.73,2.19-1.1,3.57-1.1,1.74,0,3.14.51,4.2,1.52,1.05,1.01,1.69,2.36,1.92,4.05.1.66.14,1.4.1,2.22ZM77.81,16.5c-.07.23-.13.51-.18.84,0,.09.04.13.13.13h4.52c.1,0,.14-.04.1-.13-.09-.5-.13-.75-.13-.73-.16-.52-.43-.93-.82-1.22-.39-.29-.88-.43-1.45-.43-1.1,0-1.82.51-2.17,1.54Z"/>
    <path class="cls-1" d="M96.88,7.23c.06-.06.13-.09.22-.09h3.06c.09,0,.16.03.22.09.06.06.09.14.09.22v17.67c0,.09-.03.16-.09.22-.06.06-.14.09-.22.09h-3.06c-.09,0-.16-.03-.22-.09s-.09-.14-.09-.22v-.86c0-.05-.02-.08-.05-.09-.04,0-.07,0-.1.04-.73.96-1.73,1.44-3.01,1.44s-2.27-.34-3.15-1.02-1.51-1.61-1.9-2.8c-.3-.91-.44-1.96-.44-3.16s.16-2.32.47-3.24c.4-1.12,1.03-2,1.9-2.65s1.93-.98,3.2-.98,2.23.44,2.93,1.31c.04.05.07.07.1.05.03-.02.05-.05.05-.1v-5.59c0-.09.03-.16.09-.22ZM96.77,18.72c0-1.17-.19-2.08-.58-2.75-.4-.68-.98-1.02-1.75-1.02-.82,0-1.44.34-1.86,1.02-.44.68-.65,1.6-.65,2.77,0,1.05.18,1.92.55,2.61.44.75,1.08,1.12,1.93,1.12.78,0,1.39-.37,1.83-1.12.35-.64.52-1.52.52-2.64Z"/>
    <path class="cls-1" d="M103.58,25.35c-.06-.06-.09-.14-.09-.22V7.46c0-.09.03-.16.09-.22s.13-.09.22-.09h6.54c1.31,0,2.45.23,3.44.69.98.46,1.75,1.11,2.29,1.95.54.84.81,1.8.81,2.9v7.22c0,1.1-.27,2.07-.81,2.9-.54.84-1.3,1.49-2.29,1.95-.98.46-2.13.69-3.44.69h-6.54c-.09,0-.16-.03-.22-.09ZM107.3,22.28h3.16c.8,0,1.45-.27,1.95-.81.5-.54.75-1.26.77-2.17v-6.01c0-.91-.25-1.63-.74-2.17-.5-.54-1.16-.81-2-.81h-3.14c-.09,0-.13.04-.13.13v11.71c0,.09.04.13.13.13Z"/>
    <path class="cls-1" d="M121.58,24.5c-1.05-.77-1.76-1.81-2.14-3.14-.24-.82-.37-1.71-.37-2.67,0-1.03.12-1.95.37-2.77.4-1.29,1.12-2.3,2.17-3.03,1.05-.73,2.3-1.1,3.77-1.1s2.65.36,3.66,1.09c1.01.72,1.73,1.73,2.14,3.02.28.87.42,1.79.42,2.74s-.12,1.82-.37,2.64c-.38,1.36-1.09,2.43-2.13,3.2s-2.29,1.16-3.75,1.16-2.72-.38-3.77-1.15ZM126.8,21.97c.4-.35.69-.83.86-1.44.14-.56.21-1.17.21-1.83,0-.73-.07-1.35-.21-1.86-.19-.59-.49-1.05-.89-1.39-.4-.33-.89-.5-1.46-.5s-1.09.17-1.48.5c-.39.33-.68.79-.85,1.39-.14.42-.21,1.04-.21,1.86s.06,1.39.18,1.83c.17.61.47,1.09.88,1.44.41.35.91.52,1.5.52s1.06-.17,1.46-.52Z"/>
    <path class="cls-1" d="M136.26,24.61c-1.02-.7-1.75-1.66-2.18-2.88-.3-.87-.44-1.9-.44-3.09s.15-2.18.44-3.03c.42-1.19,1.14-2.12,2.17-2.8s2.24-1.02,3.63-1.02,2.62.35,3.67,1.05c1.05.7,1.76,1.58,2.1,2.64.14.42.21.73.21.94v.05c0,.16-.09.25-.26.29l-3.01.44h-.05c-.16,0-.26-.09-.31-.26l-.08-.42c-.12-.45-.39-.83-.81-1.12-.42-.3-.91-.44-1.49-.44s-1.03.14-1.41.42c-.38.28-.65.66-.81,1.15-.19.52-.29,1.24-.29,2.14s.09,1.62.26,2.14c.16.52.43.93.82,1.23.39.3.87.44,1.43.44s1.01-.14,1.42-.43c.41-.29.69-.68.85-1.19.02-.03.03-.09.03-.16.02-.02.03-.04.03-.08.02-.21.14-.3.37-.26l3.01.47c.17.04.26.13.26.29,0,.14-.05.4-.16.78-.37,1.17-1.08,2.08-2.13,2.75-1.06.66-2.27.99-3.65.99s-2.6-.35-3.62-1.05Z"/>
  </g>
  <g>
    <path class="cls-3" d="M39.32,31.04c.84.84,1.68,1.69,2.52,2.53,4.14-4.1,8.27-8.2,12.41-12.29,0-3.62,0-7.23,0-10.85-2.96-2.98-5.92-5.97-8.88-8.95-.95.94-1.9,1.88-2.84,2.82,2.21,2.21,4.41,4.43,6.62,6.64.01,3.46.02,6.92.03,10.38-3.28,3.24-6.57,6.48-9.85,9.73Z"/>
    <path class="cls-2" d="M50.25,10.38L40.05.09l-10.93,10.84c-.29.28-.29.74,0,1.03s.74.29,1.03,0l9.9-9.81,8.71,8.79-4.73,4.69,4.99,5.04-12.39,12.28-8.07-8.14c-.28-.29-.74-.29-1.03,0s-.29.74,0,1.03l9.09,9.17,13.86-13.74-.24-10.88Z"/>
  </g>
</svg>