<?xml version="1.0" encoding="UTF-8"?>
<svg id="Capa_1" data-name="Capa 1" xmlns="http://www.w3.org/2000/svg" viewBox="0 0 771.62 380.38">
  <defs>
    <style>
      .cls-1 {
        fill: rgb(0, 158, 247);
      }

      .cls-1, .cls-2 {
        stroke-width: 0px;
      }

      .cls-3 {
        fill: rgb(161, 165, 183);
        stroke: rgb(161, 165, 183);
        stroke-miterlimit: 10;
      }

      .cls-2 {
        fill: #1d1d1b;
      }
    </style>
  </defs>
  <rect class="cls-1" x="32.23" y="99.37" width="179.32" height="181.64" rx="12" ry="12"/>
  <g>
    <path class="cls-3" d="m71.9,165.19l47.5-31.9c1.69-1.14,3.91-1.13,5.6.02l46.89,31.88c1.37.93,2.19,2.48,2.19,4.13v51.09c0,1.7-.86,3.28-2.29,4.2l-47.31,30.47c-1.67,1.08-3.83,1.06-5.48-.05l-47.08-31.45c-1.39-.93-2.22-2.49-2.22-4.16v-50.09c0-1.66.83-3.22,2.21-4.15Z"/>
    <path class="cls-1" d="m81.32,193.4l39.06,26.73c.37.25.85.25,1.21,0l13.49-9.34c.54-.37.62-1.13.18-1.61l-4.86-5.25c-.36-.39-.97-.46-1.4-.15l-6.08,4.29c-.36.25-.84.26-1.21.02l-15.89-10.52c-.46-.31-.62-.91-.35-1.4,1.37-2.53,3.61-5.9,7.19-9.05,2.3-2.02,4.57-3.45,6.48-4.44.35-.18.76-.15,1.08.07,9.58,6.45,19.17,12.9,28.75,19.36.38.25.87.24,1.24-.03l12.86-9.52c.71-.52,1.71-.02,1.71.86v23.33c0,.36-.18.69-.48.89l-40.92,27.32c-.36.24-.83.24-1.19,0l-42.08-27.84c-.3-.2-.48-.53-.48-.89v-21.94c0-.86.97-1.37,1.68-.88Z"/>
    <path class="cls-1" d="m100.2,191.89l.55-10.74c0-.09.05-.17.13-.21l20.01-11.86c.09-.05.2-.05.29.01l27.61,19.94c.1.07.22.07.32,0l15.67-8.4-.13-7.72-40.72-27.8c-1.03-.74-2.42-.76-3.47-.05l-40.71,27.4c-.74.5-1.15,1.36-1.07,2.25l.33,3.55c.11,1.24.83,2.35,1.91,2.97l18.9,10.87c.17.1.38-.02.39-.21Z"/>
    <path class="cls-3" d="m263.82,199.26v45.04h-16.06v-107.19h38.13c6.61,0,11.93.6,15.99,1.8,4.05,1.2,7.48,3.2,10.28,6.01,5.1,5.21,7.66,12.76,7.66,22.67s-1.9,16.57-5.7,21.47c-3.4,4.2-8.56,7.11-15.46,8.71l23.42,46.54h-17.71l-21.47-45.04h-19.06Zm-.3-12.76h21.77c6.8,0,11.71-1.7,14.71-5.1,2.6-2.9,3.9-7.26,3.9-13.06,0-6.8-1.8-11.61-5.41-14.41-3.1-2.6-7.81-3.9-14.11-3.9h-20.87v36.48Z"/>
    <path class="cls-3" d="m351.64,209.62v2.85c0,7.31,1.85,12.81,5.55,16.51,3.2,3.1,7.66,4.65,13.36,4.65,3.8,0,6.98-.6,9.53-1.8s4.88-3.15,6.98-5.85l11.41,6.76c-3.2,4.6-7.08,7.93-11.63,9.98-4.56,2.05-10.49,3.08-17.79,3.08-12.11,0-20.72-3.3-25.82-9.91-4.6-5.9-6.91-14.71-6.91-26.42v-5.85c0-13.81,2.9-23.62,8.71-29.42,5-5.1,12.71-7.66,23.12-7.66,11.81,0,20.21,3.35,25.22,10.06,4.4,5.91,6.61,14.91,6.61,27.02v6.01h-48.34Zm0-10.81h33.78v-1.5c0-6.5-1.6-11.36-4.8-14.56-2.9-2.9-6.91-4.35-12.01-4.35-6.61,0-11.26,2.25-13.96,6.76-2,3.3-3,7.36-3,12.16v1.5Z"/>
    <path class="cls-3" d="m467.53,244.3l-1.05-5.85c-.4.3-1.35,1.15-2.85,2.55-1.5,1.4-3.96,2.55-7.36,3.45-3.4.9-7.01,1.35-10.81,1.35-10.81,0-18.52-3.05-23.12-9.16-4-5.4-6-13.66-6-24.77v-11.26c0-12.51,2.6-21.47,7.81-26.87,4.6-4.8,11.51-7.21,20.72-7.21,4.1,0,7.53.43,10.28,1.28,2.75.85,5.43,2.33,8.03,4.43.1,0,.3.15.6.45l.3.15v-35.73h15.31v107.19h-11.86Zm-3.45-44.89c-.2-7.6-1.75-13.01-4.65-16.21-2.6-2.8-6.51-4.2-11.71-4.2-5.91,0-10.16,2.05-12.76,6.16-2.3,3.7-3.45,9.16-3.45,16.36v9.31c0,8.21,1.5,14.16,4.5,17.86,2.6,3.2,6.5,4.8,11.71,4.8,10.91,0,16.36-6.8,16.36-20.42v-13.66Z"/>
    <path class="cls-3" d="m504.01,244.3v-107.19h35.28c6.4,0,11.73.6,15.99,1.8,4.25,1.2,8.08,3.15,11.48,5.85,4.4,3.6,7.55,7.93,9.46,12.99,1.9,5.06,2.85,11.89,2.85,20.49v24.92c0,8.61-.95,15.44-2.85,20.49-1.9,5.06-5.05,9.38-9.46,12.99-6.31,5.1-15.46,7.66-27.47,7.66h-35.28Zm16.06-12.91h16.36c9.31,0,15.81-1.95,19.52-5.85,4.7-4.8,7.06-12.76,7.06-23.87v-21.92c0-11.11-2.35-19.06-7.06-23.87-3.7-3.9-10.21-5.85-19.52-5.85h-16.36v81.37Z"/>
    <path class="cls-3" d="m598.88,212.02v-11.56c0-12.51,2.95-21.47,8.86-26.87,5.1-4.7,12.86-7.06,23.27-7.06,11.91,0,20.42,3.1,25.52,9.31,4.5,5.4,6.76,13.61,6.76,24.62v11.56c0,12.41-2.95,21.32-8.86,26.72-5.2,4.71-13.01,7.06-23.42,7.06-11.81,0-20.27-3.1-25.37-9.31-4.5-5.4-6.75-13.56-6.75-24.47Zm15.31-1.05c.2,8.71,1.75,14.71,4.65,18.01,2.6,3,6.66,4.5,12.16,4.5,6.31,0,10.81-2.05,13.51-6.16,2.3-3.6,3.45-9.06,3.45-16.36v-9.61c0-8.31-1.55-14.21-4.65-17.71-2.7-3.1-6.81-4.65-12.31-4.65-6.21,0-10.66,2.05-13.36,6.16-2.3,3.5-3.45,8.91-3.45,16.21v9.61Z"/>
    <path class="cls-3" d="m728.14,225.98l11.26,6.61c-5.81,8.81-14.96,13.21-27.47,13.21-20.82,0-31.22-12.06-31.22-36.18v-5.55c0-13.51,2.85-23.32,8.56-29.42,5-5.4,12.41-8.11,22.22-8.11,12.41,0,21.27,4.5,26.57,13.51l-11.56,6.61c-2-2.9-4.03-4.9-6.08-6-2.05-1.1-4.68-1.65-7.88-1.65-6,0-10.36,2.2-13.06,6.61-2.3,3.9-3.45,9.66-3.45,17.26v8.26c0,14.91,5.6,22.37,16.81,22.37,6.51,0,11.61-2.5,15.31-7.51Z"/>
  </g>
</svg>
