<?xml version="1.0" encoding="UTF-8"?>
<svg id="Capa_1" data-name="Capa 1" xmlns="http://www.w3.org/2000/svg" viewBox="0 0 706.67 182">
  <defs>
    <style>
      .cls-1 {
        fill: #ffff;
      }

      .cls-1, .cls-2 {
        stroke-width: 0px;
      }

      .cls-2 {
        fill: #009ef7;
      }
    </style>
  </defs>
  <g>
    <path class="cls-1" d="M257.46,130.9l-17.05-37.79c-.18-.36-.46-.54-.82-.54h-12.69c-.46,0-.68.23-.68.68v37.24c0,.46-.16.84-.48,1.16-.32.32-.71.48-1.16.48h-15.96c-.46,0-.84-.16-1.16-.48s-.48-.71-.48-1.16V38.28c0-.46.16-.84.48-1.16.32-.32.7-.48,1.16-.48h39.02c5.82,0,10.93,1.18,15.35,3.55,4.41,2.36,7.82,5.73,10.23,10.09,2.41,4.37,3.61,9.41,3.61,15.14,0,6.18-1.55,11.48-4.64,15.89-3.09,4.41-7.41,7.53-12.96,9.35-.45.18-.59.5-.41.96l18.55,38.61c.18.36.27.64.27.82,0,.73-.5,1.09-1.5,1.09h-16.78c-.91,0-1.55-.41-1.91-1.23ZM226.22,53.83v23.33c0,.46.23.68.68.68h17.87c3.82,0,6.93-1.14,9.34-3.41,2.41-2.27,3.62-5.23,3.62-8.87s-1.21-6.62-3.62-8.94c-2.41-2.32-5.52-3.48-9.34-3.48h-17.87c-.46,0-.68.23-.68.68Z"/>
    <path class="cls-1" d="M351.18,101.44c-.09,1.09-.68,1.64-1.77,1.64h-42.15c-.55,0-.73.23-.55.68.27,1.82.77,3.64,1.5,5.46,2.36,5.09,7.18,7.64,14.46,7.64,5.82-.09,10.41-2.45,13.78-7.09.36-.55.77-.82,1.23-.82.27,0,.59.18.96.55l9.82,9.68c.45.46.68.87.68,1.23,0,.18-.18.55-.55,1.09-3,3.73-6.87,6.62-11.6,8.66-4.73,2.04-9.91,3.07-15.55,3.07-7.82,0-14.44-1.78-19.85-5.32-5.41-3.55-9.3-8.5-11.66-14.87-1.91-4.55-2.86-10.5-2.86-17.87,0-5,.68-9.41,2.05-13.23,2.09-6.46,5.75-11.6,10.98-15.42,5.23-3.82,11.43-5.73,18.62-5.73,9.09,0,16.39,2.64,21.89,7.91,5.5,5.28,8.84,12.32,10.02,21.14.55,3.46.73,7.32.55,11.6ZM307.53,85.48c-.36,1.18-.68,2.64-.96,4.36,0,.46.23.68.68.68h23.6c.55,0,.73-.23.55-.68-.46-2.63-.68-3.91-.68-3.82-.82-2.73-2.25-4.85-4.3-6.34-2.04-1.5-4.57-2.25-7.57-2.25-5.73,0-9.51,2.68-11.32,8.05Z"/>
    <path class="cls-1" d="M407.05,37.12c.32-.32.7-.48,1.16-.48h15.96c.45,0,.84.16,1.16.48.32.32.48.71.48,1.16v92.21c0,.46-.16.84-.48,1.16-.32.32-.71.48-1.16.48h-15.96c-.46,0-.84-.16-1.16-.48-.32-.32-.48-.71-.48-1.16v-4.5c0-.27-.09-.43-.27-.48-.18-.04-.36.02-.55.21-3.82,5-9.05,7.5-15.69,7.5s-11.85-1.78-16.44-5.32c-4.59-3.55-7.89-8.41-9.89-14.59-1.55-4.73-2.32-10.23-2.32-16.51s.82-12.09,2.45-16.92c2.09-5.82,5.39-10.43,9.89-13.84,4.5-3.41,10.07-5.12,16.71-5.12s11.64,2.27,15.28,6.82c.18.27.36.36.55.27.18-.09.27-.27.27-.55v-29.19c0-.46.16-.84.48-1.16ZM406.43,97.07c0-6.09-1-10.86-3-14.32-2.09-3.54-5.14-5.32-9.14-5.32-4.28,0-7.5,1.78-9.69,5.32-2.27,3.55-3.41,8.37-3.41,14.46,0,5.46.96,10,2.87,13.64,2.27,3.91,5.64,5.87,10.09,5.87,4.09,0,7.27-1.95,9.55-5.87,1.82-3.36,2.73-7.96,2.73-13.78Z"/>
    <path class="cls-2" d="M441.97,131.66c-.32-.32-.48-.71-.48-1.16V38.28c0-.46.16-.84.48-1.16.32-.32.7-.48,1.16-.48h34.1c6.82,0,12.8,1.21,17.94,3.61,5.14,2.41,9.12,5.8,11.94,10.16,2.82,4.37,4.23,9.41,4.23,15.14v37.65c0,5.73-1.41,10.78-4.23,15.14-2.82,4.37-6.8,7.75-11.94,10.16-5.14,2.41-11.12,3.61-17.94,3.61h-34.1c-.46,0-.84-.16-1.16-.48ZM461.4,115.63h16.51c4.18,0,7.57-1.41,10.16-4.23,2.59-2.82,3.93-6.59,4.02-11.32v-31.37c0-4.73-1.3-8.5-3.89-11.32-2.59-2.82-6.07-4.23-10.43-4.23h-16.37c-.45,0-.68.23-.68.68v61.11c0,.46.23.68.68.68Z"/>
    <path class="cls-2" d="M535.89,127.22c-5.46-4-9.19-9.46-11.18-16.37-1.28-4.27-1.91-8.91-1.91-13.91,0-5.37.64-10.18,1.91-14.46,2.09-6.73,5.86-12.01,11.32-15.83,5.46-3.82,12.01-5.73,19.65-5.73s13.82,1.89,19.1,5.66c5.27,3.77,9,9.03,11.19,15.76,1.45,4.55,2.18,9.32,2.18,14.32s-.64,9.51-1.91,13.78c-2,7.09-5.71,12.67-11.12,16.71-5.41,4.05-11.94,6.07-19.57,6.07s-14.19-2-19.65-6ZM563.17,113.99c2.09-1.82,3.59-4.32,4.5-7.5.73-2.91,1.09-6.09,1.09-9.55,0-3.82-.37-7.05-1.09-9.68-1-3.09-2.55-5.5-4.64-7.23-2.09-1.73-4.64-2.59-7.64-2.59s-5.66.87-7.71,2.59c-2.04,1.73-3.52,4.14-4.43,7.23-.73,2.18-1.09,5.41-1.09,9.68s.32,7.28.95,9.55c.91,3.18,2.43,5.68,4.57,7.5,2.14,1.82,4.75,2.73,7.85,2.73s5.55-.91,7.64-2.73Z"/>
    <path class="cls-2" d="M612.48,127.77c-5.32-3.64-9.12-8.64-11.39-15-1.55-4.55-2.32-9.91-2.32-16.1s.77-11.37,2.32-15.82c2.18-6.18,5.95-11.05,11.32-14.6,5.37-3.55,11.69-5.32,18.96-5.32s13.66,1.82,19.17,5.46c5.5,3.64,9.16,8.23,10.98,13.78.73,2.18,1.09,3.82,1.09,4.91v.27c0,.82-.45,1.32-1.36,1.5l-15.69,2.32h-.27c-.82,0-1.37-.46-1.64-1.37l-.41-2.18c-.64-2.36-2.04-4.32-4.23-5.87-2.18-1.55-4.77-2.32-7.77-2.32s-5.37.73-7.37,2.18c-2,1.46-3.41,3.46-4.23,6-1,2.73-1.5,6.46-1.5,11.18s.45,8.46,1.36,11.19c.82,2.73,2.25,4.87,4.3,6.41,2.05,1.55,4.52,2.32,7.44,2.32s5.3-.75,7.43-2.25c2.13-1.5,3.61-3.57,4.43-6.21.09-.18.14-.45.14-.82.09-.09.14-.23.14-.41.09-1.09.73-1.55,1.91-1.36l15.69,2.45c.91.18,1.37.68,1.37,1.5,0,.73-.27,2.09-.82,4.09-1.91,6.09-5.62,10.87-11.12,14.32-5.51,3.46-11.85,5.19-19.03,5.19s-13.57-1.82-18.89-5.46Z"/>
  </g>
  <g>
    <path class="cls-2" d="M106.72,161.36c4.38,4.4,8.75,8.81,13.13,13.21,21.58-21.38,43.16-42.76,64.74-64.14,0-18.87,0-37.74.01-56.61-15.44-15.57-30.88-31.14-46.32-46.71-4.95,4.9-9.89,9.8-14.84,14.7,11.51,11.56,23.02,23.11,34.53,34.67.06,18.05.11,36.09.17,54.14-17.14,16.92-34.28,33.83-51.42,50.75Z"/>
    <path class="cls-1" d="M163.71,53.53L110.52-.14l-57.05,56.55c-1.49,1.48-1.5,3.88-.02,5.37s3.88,1.5,5.37.02L110.47,10.6l45.45,45.85-24.68,24.47,26.05,26.28-64.63,64.06-42.1-42.48c-1.48-1.49-3.88-1.5-5.37-.02s-1.5,3.88-.02,5.37l47.45,47.87,72.34-71.71-1.23-56.76Z"/>
  </g>
</svg>
